<?xml version="1.0" encoding="iso-8859-1"?>
<!-- Uploaded to: SVG Repo, www.svgrepo.com, Generator: SVG Repo Mixer Tools -->
<svg fill="#244855" height="800px" width="800px" version="1.1" id="Layer_1" xmlns="http://www.w3.org/2000/svg" xmlns:xlink="http://www.w3.org/1999/xlink" 
	 viewBox="0 0 512.002 512.002" xml:space="preserve">
<g>
	<g>
		<path d="M510.289,252.365c-2.927-4.066-8.597-4.987-12.661-2.061C357.204,351.41,179.857,387.554,11.07,349.48
			c-4.885-1.104-9.744,1.965-10.846,6.853s1.966,9.743,6.853,10.845c9.201,2.076,18.428,3.926,27.672,5.575l42.219,83.197
			c1.467,2.89,4.364,4.778,7.599,4.953c0.165,0.008,0.328,0.013,0.491,0.013c3.054,0,5.919-1.541,7.598-4.118l48.481-74.386
			c0.965,0.005,1.932,0.021,2.897,0.021c2.568,0,5.133-0.044,7.7-0.075l53.784,75.577c1.711,2.405,4.472,3.811,7.389,3.811
			c0.285,0,0.573-0.013,0.861-0.041c3.226-0.307,6.043-2.313,7.39-5.26l38.81-84.915c5.769-1.091,11.526-2.246,17.261-3.5
			l68.92,62.937c1.696,1.549,3.886,2.373,6.119,2.373c0.917,0,1.841-0.139,2.742-0.425c3.089-0.98,5.421-3.533,6.118-6.698
			l19.918-90.58c3.272-1.344,6.535-2.713,9.786-4.114l73.706,49.473c1.522,1.021,3.285,1.54,5.057,1.54
			c1.362,0,2.729-0.306,3.994-0.928c2.91-1.427,4.837-4.299,5.056-7.532l6.3-93.106c7.858-5.133,15.628-10.433,23.28-15.943
			C512.293,262.1,513.216,256.431,510.289,252.365z M86.038,433.729l-29.144-57.433c20.927,2.96,41.917,4.839,62.889,5.657
			L86.038,433.729z M211.191,434.613l-37.653-52.908c21.719-1.029,43.346-3.182,64.788-6.462L211.191,434.613z M346.785,406.975
			l-48.194-44.009c21.013-5.374,41.753-11.858,62.139-19.412L346.785,406.975z M461.607,357.175l-51.326-34.45
			c18.984-8.963,37.57-18.899,55.675-29.815L461.607,357.175z"/>
	</g>
</g>
<g>
	<g>
		<path d="M511.778,157.994c-1.102-4.888-5.95-7.954-10.846-6.853C332.14,189.218,154.797,153.07,14.374,51.966
			c-4.062-2.926-9.733-2.005-12.663,2.061c-2.927,4.065-2.004,9.734,2.062,12.663c7.653,5.509,15.421,10.81,23.28,15.943
			l6.299,93.105c0.219,3.233,2.144,6.104,5.056,7.532c1.265,0.62,2.632,0.928,3.994,0.928c1.772,0,3.535-0.519,5.057-1.539
			l73.705-49.471c3.251,1.401,6.515,2.771,9.787,4.115l19.919,90.577c0.695,3.165,3.029,5.719,6.118,6.698
			c0.9,0.285,1.824,0.425,2.742,0.425c2.232,0,4.422-0.824,6.119-2.373l68.919-62.934c5.737,1.254,11.495,2.409,17.266,3.5
			l38.809,84.911c1.347,2.948,4.164,4.953,7.39,5.26c0.288,0.027,0.576,0.041,0.861,0.041c2.916,0,5.679-1.407,7.389-3.811
			l53.783-75.576c2.567,0.031,5.132,0.075,7.699,0.075c0.966,0,1.933-0.016,2.899-0.021l48.48,74.386
			c1.68,2.578,4.544,4.118,7.598,4.118c0.163,0,0.328-0.004,0.491-0.013c3.235-0.175,6.132-2.063,7.599-4.953l42.219-83.197
			c9.246-1.649,18.473-3.499,27.673-5.575C509.812,167.737,512.88,162.882,511.778,157.994z M50.394,158.836l-4.348-64.265
			c18.104,10.917,36.69,20.853,55.672,29.816L50.394,158.836z M165.216,208.636l-13.946-63.417
			c20.385,7.552,41.124,14.037,62.137,19.411L165.216,208.636z M300.81,236.273l-27.135-59.368
			c21.443,3.279,43.066,5.432,64.786,6.461L300.81,236.273z M425.963,235.388l-33.745-51.776c20.97-0.818,41.961-2.697,62.889-5.657
			L425.963,235.388z"/>
	</g>
</g>
</svg>