<svg 
              viewBox="0 0 24 24"
              xmlns="http://www.w3.org/2000/svg"
            >
              <path
                d="M14.3,4.5c-0.9,0.4-1.7,1.1-2.3,1.9c-0.6-0.8-1.4-1.4-2.3-1.9C7.9,3.6,5.8,3.9,4.4,5.3c-1,1-1.5,2.3-1.3,3.6 c-0.1,4.8,2.7,9.3,7.1,11.4l0.8,0.4c0.4,0.2,0.8,0.3,1.2,0.3s0.8-0.1,1.2-0.3l0.8-0.4c4.4-2.1,7.2-6.6,7.1-11.4 c0.1-1.4-0.4-2.7-1.3-3.6C18.2,3.9,16.1,3.6,14.3,4.5z"
                stroke="#E64833"
                fill="none"
              ></path>
            </svg>