<svg fill="#244855" height="200px" width="200px" version="1.1" id="Layer_1" xmlns="http://www.w3.org/2000/svg" xmlns:xlink="http://www.w3.org/1999/xlink" viewBox="0 0 511.996 511.996" xml:space="preserve" stroke="#90AEAD"><g id="SVGRepo_bgCarrier" stroke-width="0"></g><g id="SVGRepo_tracerCarrier" stroke-linecap="round" stroke-linejoin="round"></g><g id="SVGRepo_iconCarrier"> <g> <g> <path d="M332.657,120.968c3.47-3.572,6.136-6.361,7.892-8.264C381.054,68.833,361.226,0,304.657,0 c-19.783,0-37.339,10.3-48.682,25.986C244.637,10.3,227.078,0,207.289,0c-56.434,0-76.513,70.648-35.754,112.849 c2.016,2.087,4.709,4.849,7.883,8.088C103.943,151.656,52.963,225.394,52.963,308.961c0,112.136,90.901,203.034,203.034,203.034 s203.034-90.898,203.034-203.034C459.032,225.422,408.092,151.708,332.657,120.968z M250.411,192.154 c3.496,2.921,8.641,2.701,11.875-0.507c1.844-1.828,6.909-6.868,12.229-12.17c2.957-2.948,5.94-5.924,8.92-8.9 c65.564,12.909,113.804,70.543,113.804,138.384c0,78.007-63.234,141.241-141.241,141.241s-141.241-63.234-141.241-141.241 c0-67.843,48.234-125.473,113.8-138.383C240.107,182.15,249.057,191.023,250.411,192.154z M207.289,17.655 c17.761,0,33.474,12.34,40.495,29.779c2.968,7.373,13.405,7.375,16.376,0.003c7.031-17.443,22.744-29.783,40.497-29.783 c39.592,0,53.866,49.554,22.919,83.073c-2.981,3.23-8.852,9.283-17.025,17.578c-0.009,0.009-0.02,0.016-0.029,0.026 c-9.368,9.511-20.781,20.975-36.296,36.49c-0.003,0.003-0.006,0.007-0.009,0.01c-4.055,4.052-8.133,8.122-12.165,12.141 c-2.129,2.122-4.217,4.201-6.072,6.048c-4.374-4.331-10.849-10.805-18.19-18.178c-0.003-0.003-0.005-0.006-0.008-0.009 c-1.337-1.343-2.714-2.726-4.12-4.14c-0.077-0.078-0.155-0.156-0.232-0.233c-0.609-0.612-1.224-1.231-1.844-1.855 c-0.166-0.167-0.333-0.335-0.499-0.503c-9.448-9.508-20.006-20.178-29.5-29.809c-0.015-0.015-0.032-0.026-0.047-0.041 c-7.379-7.488-13.619-13.853-17.306-17.67C153.432,68.692,167.938,17.655,207.289,17.655z M255.998,494.34 c-102.383,0-185.379-82.994-185.379-185.379c0-78.796,49.642-148.034,122.292-174.308c6.636,6.724,13.921,14.083,21.015,21.227 C145.93,174.468,97.101,236.542,97.101,308.961c0,87.758,71.139,158.897,158.897,158.897s158.897-71.139,158.897-158.897 c0-72.4-48.811-134.464-116.779-153.068c0.018-0.018,0.037-0.037,0.055-0.055c7.919-7.937,14.972-15.033,21.018-21.15 c72.598,26.305,122.189,95.513,122.189,174.273C441.377,411.347,358.381,494.34,255.998,494.34z"></path> </g> </g> </g></svg>